<svg xmlns="http://www.w3.org/2000/svg" width="60" height="50" viewBox="0 0 60 50">
  <defs>
    <style>
      .cls-1 {
        fill: #276cb2;
        fill-rule: evenodd;
      }
    </style>
  </defs>
  <path id="Фигура_4" data-name="Фигура 4" class="cls-1" d="M30,0A25,25,0,1,1,5,25,25,25,0,0,1,30,0Zm0,0.909A24.091,24.091,0,1,1,5.909,25,24.091,24.091,0,0,1,30,.909ZM20.043,19.652a3.557,3.557,0,0,0,.926,2.49,3.144,3.144,0,0,0,2.438,1.013A3.067,3.067,0,0,0,25.8,22.143a3.584,3.584,0,0,0,.914-2.49v-0.9a3.609,3.609,0,0,0-.92-2.508,3.368,3.368,0,0,0-4.828,0,3.608,3.608,0,0,0-.92,2.508v0.9Zm1.125-.9a2.778,2.778,0,0,1,.58-1.77,2.172,2.172,0,0,1,3.264,0,2.8,2.8,0,0,1,.574,1.77v0.9a2.767,2.767,0,0,1-.568,1.758,1.927,1.927,0,0,1-1.611.727,2,2,0,0,1-1.658-.727,2.73,2.73,0,0,1-.58-1.758v-0.9Zm7.453,10.512a3.571,3.571,0,0,0,.926,2.5,3.143,3.143,0,0,0,2.437,1.014,3.085,3.085,0,0,0,2.4-1.014,3.585,3.585,0,0,0,.92-2.5V28.347a3.58,3.58,0,0,0-.926-2.5,3.375,3.375,0,0,0-4.834,0,3.592,3.592,0,0,0-.92,2.5v0.914Zm1.137-.914a2.76,2.76,0,0,1,.574-1.775,2.207,2.207,0,0,1,3.258-.006,2.754,2.754,0,0,1,.574,1.781v0.914a2.784,2.784,0,0,1-.568,1.77,1.927,1.927,0,0,1-1.611.727,1.981,1.981,0,0,1-1.652-.727,2.764,2.764,0,0,1-.574-1.77V28.347Zm2.32-10.57-0.867-.562L22.879,30.551l0.867,0.562ZM41,15h1V31H41V15M39,29l2.5,1.623L44,29v1.377L41.5,32,39,30.377V29Z"/>
</svg>
