<svg xmlns="http://www.w3.org/2000/svg" width="60" height="50" viewBox="0 0 60 50">
  <defs>
    <style>
      .cls-1 {
        fill: #276cb2;
        fill-rule: evenodd;
      }
    </style>
  </defs>
  <path id="Иконка_1" data-name="Иконка 1" class="cls-1" d="M3,11H57a2,2,0,0,1,2,2V34a2,2,0,0,1-2,2H3a2,2,0,0,1-2-2V13A2,2,0,0,1,3,11Zm1,1H56a2,2,0,0,1,2,2V33a2,2,0,0,1-2,2H4a2,2,0,0,1-2-2V14A2,2,0,0,1,4,12ZM31.09,24.014a4.069,4.069,0,0,0,2.888-.956A3.332,3.332,0,0,0,35,20.5a3.328,3.328,0,0,0-1.022-2.539A4.047,4.047,0,0,0,31.09,17H27V30h0.977V24.014H31.09Zm-3.112-6.173H31.09a2.918,2.918,0,0,1,2.2.762,2.653,2.653,0,0,1,.733,1.916,2.614,2.614,0,0,1-.733,1.9,2.936,2.936,0,0,1-2.2.754H27.978V17.841ZM26,26V25h7v1H26m0-2V23h7v1H26m22-4a3,3,0,1,1-3,3A3,3,0,0,1,48,20Zm0,1a2,2,0,1,1-2,2A2,2,0,0,1,48,21ZM13,20a3,3,0,1,1-3,3A3,3,0,0,1,13,20Zm0,1a2,2,0,1,1-2,2A2,2,0,0,1,13,21ZM51,32V31h4v1H51M9,41V40H51v1H9M5,39V38H55v1H5M51,16V15h4v1H51M5,32V31H9v1H5M5,16V15H9v1H5M49.646,5.646l0.707,0.707-39,39-0.707-.707,39-39"/>
</svg>
