<svg xmlns="http://www.w3.org/2000/svg" width="16" height="17" viewBox="0 0 16 17">
  <defs>
    <style>
      .cls-1 {
        fill: #276cb2;
        fill-rule: evenodd;
      }
    </style>
  </defs>
  <path id="Закрыть" class="cls-1" d="M15.071,0.722l0.707,0.707a0.5,0.5,0,0,1,0,.707L1.636,16.278a0.5,0.5,0,0,1-.707,0l-0.707-.707a0.5,0.5,0,0,1,0-.707L14.364,0.722A0.5,0.5,0,0,1,15.071.722ZM0.905,1.2L0.2,1.905a0.5,0.5,0,0,0,0,.709L14.385,16.8a0.5,0.5,0,0,0,.71,0l0.709-.709a0.5,0.5,0,0,0,0-.709L1.615,1.2A0.5,0.5,0,0,0,.905,1.2Z"/>
</svg>
