<svg xmlns="http://www.w3.org/2000/svg" width="59.995" height="50" viewBox="0 0 58 48.337">
  <metadata><?xpacket begin="﻿" id="W5M0MpCehiHzreSzNTczkc9d"?>
<x:xmpmeta xmlns:x="adobe:ns:meta/" x:xmptk="Adobe XMP Core 5.6-c138 79.159824, 2016/09/14-01:09:01        ">
   <rdf:RDF xmlns:rdf="http://www.w3.org/1999/02/22-rdf-syntax-ns#">
      <rdf:Description rdf:about=""/>
   </rdf:RDF>
</x:xmpmeta>
                                                                                                    
                                                                                                    
                                                                                                    
                                                                                                    
                                                                                                    
                                                                                                    
                                                                                                    
                                                                                                    
                                                                                                    
                                                                                                    
                                                                                                    
                                                                                                    
                                                                                                    
                                                                                                    
                                                                                                    
                                                                                                    
                                                                                                    
                                                                                                    
                                                                                                    
                                                                                                    
                           
<?xpacket end="w"?></metadata>
<defs>
    <style>
      .cls-1 {
        fill: #276cb2;
        fill-rule: evenodd;
      }
    </style>
  </defs>
  <path id="Иконка_1" data-name="Иконка 1" class="cls-1" d="M714,707h54a2,2,0,0,1,2,2v21a2,2,0,0,1-2,2H714a2,2,0,0,1-2-2V709A2,2,0,0,1,714,707Zm1,1h52a2,2,0,0,1,2,2v19a2,2,0,0,1-2,2H715a2,2,0,0,1-2-2V710A2,2,0,0,1,715,708Zm27.09,12.014a4.067,4.067,0,0,0,2.888-.957,3.684,3.684,0,0,0,0-5.093A4.047,4.047,0,0,0,742.09,713H738v13h0.978v-5.986h3.112Zm-3.112-6.174h3.112a2.919,2.919,0,0,1,2.2.763,2.652,2.652,0,0,1,.733,1.916,2.614,2.614,0,0,1-.733,1.9,2.94,2.94,0,0,1-2.2.754h-3.112V713.84ZM737,722v-1h7v1h-7m0-2v-1h7v1h-7m22-4a3,3,0,1,1-3,3A3,3,0,0,1,759,716Zm0,1a2,2,0,1,1-2,2A2,2,0,0,1,759,717Zm-35-1a3,3,0,1,1-3,3A3,3,0,0,1,724,716Zm0,1a2,2,0,1,1-2,2A2,2,0,0,1,724,717Zm38,11v-1h4v1h-4m-42,9v-1h42v1H720m-4-2v-1h50v1H716m46-23v-1h4v1h-4m-46,16v-1h4v1h-4m0-16v-1h4v1h-4" transform="translate(-712 -697.831)"/>
</svg>
