<svg xmlns="http://www.w3.org/2000/svg" width="60" height="50" viewBox="0 0 60 50">
  <defs>
    <style>
      .cls-1 {
        fill: #276cb2;
        fill-rule: evenodd;
      }
    </style>
  </defs>
  <path id="Иконка_2" data-name="Иконка 2" class="cls-1" d="M12.73,15.611a10.723,10.723,0,0,1,5.3-1.532,4.006,4.006,0,0,1,.538.072,15.146,15.146,0,0,1-.46-3.7A8.616,8.616,0,0,1,26.868,2c4.164,0,7.66,1.819,8.542,5.583,0.009,0.031.016,0.063,0.021,0.094A14.521,14.521,0,0,1,36,10a9.486,9.486,0,0,1-4.946,7.866A15.522,15.522,0,0,1,34,20a9.326,9.326,0,0,1,0-2,5,5,0,1,1,10,0,5.1,5.1,0,0,1-2.5,4.428,3.94,3.94,0,0,1,1.388,3.29L42,29l5,4h0c0.528,1.438.56,1.783,0,3-0.651,1.414-2.771,1.422-4.14,1.422h-0.1c0,0.066.115,0.142,0.123,0.208C43.25,40.774,41.89,42.924,40,43l0.607,2.776a0.983,0.983,0,0,1-.211.852,1.061,1.061,0,0,1-.811.371H20c-0.072,0-2.121-.464-2-2l3.16-23.061q0-.106.011-0.218A29.082,29.082,0,0,0,17.058,24.5c-0.234.225-.029-1.182-0.058-1.5a13.546,13.546,0,0,1,1-5c-1.744-.2-2.859-1.447-5.617-1.413C12,16.592,12.437,15.85,12.73,15.611ZM26.79,3A7.65,7.65,0,0,0,19,10.482,7.338,7.338,0,0,0,21.534,16c5.936-1.686,7.561-9.25,7.578-9.327a1.19,1.19,0,0,1,.8-0.884,1.277,1.277,0,0,1,.4-0.065,1.256,1.256,0,0,1,.8.283A9.309,9.309,0,0,0,34,7.645,7.812,7.812,0,0,0,26.79,3ZM35,10c0-.116.007-0.885,0-1-1.066,0-3.666-1.429-4.513-1.949C29.791,9.1,26.519,15.241,23,17c0.709,0.249-1.094,1,4,1A8.1,8.1,0,0,0,35,10ZM35.323,24.6L34,31h7l1-5c0-.017-0.35-1.139-0.348-1.159,0.138-1.1-1.011-2.451-2.943-2.713a3.038,3.038,0,0,0-2.283.448A2.978,2.978,0,0,0,35.323,24.6ZM43,17.5A3.78,3.78,0,0,0,39,14a3.78,3.78,0,0,0-4,3.5A3.779,3.779,0,0,0,39,21,3.779,3.779,0,0,0,43,17.5Zm0,18.911c0.25,0,1.679.121,2-.411,1.56-.368,1.562-2.627.312-3.31L42.5,30.974l-0.016.217a0.981,0.981,0,0,1-.064.293,1,1,0,0,1-.257.377,1.061,1.061,0,0,1-.39.228A0.649,0.649,0,0,0,42,32H35c-1.551.129-4.022,1.282-4,2,0.024,0.762-.06,1.888,0,2h9C41.271,36.051,42.289,35.771,43,36.411ZM40,42c1.094,0,2.091-1.729,2.029-3.344a2.158,2.158,0,0,0-2.148-1.729l-6.763-.041H33.106l-2.6-.016c-0.5,0-.415-1.392-0.5-1.87l-1.05-7.169c-0.244-1.313.814-1.671,1.059-.358l0.98,5.254A2.551,2.551,0,0,1,32.18,31c0-.011.818,0.008,0.82,0l1-6a6.436,6.436,0,0,1,1-3c-1.714-1.744-5.5-3-8-3-3.862,0-5,1.491-5,4,0,4.052,2,15,2,15,0.238,2.625,2.4,4,3,4H40Zm0,4-1-3H27c-1.989,0-3.631-2.059-3.952-3.764L21.358,27.01S19.037,46,19,46H40ZM21.578,19a3.886,3.886,0,0,0,.366-2,11.3,11.3,0,0,0-2.579,2.078A8.935,8.935,0,0,0,18,23,12.709,12.709,0,0,0,21.578,19Zm-3.492-2.05A6.723,6.723,0,0,0,20.5,16.6c0.165-.106.333-0.2,0.5-0.3a6.548,6.548,0,0,0-3.05-1.263A8.305,8.305,0,0,0,14,16.047,39.36,39.36,0,0,0,18.087,16.95Z"/>
</svg>
