<svg xmlns="http://www.w3.org/2000/svg" width="60" height="50" viewBox="0 0 60 50">
  <defs>
    <style>
      .cls-1 {
        fill: #276cb2;
        fill-rule: evenodd;
      }
    </style>
  </defs>
  <path id="Иконка_3" data-name="Иконка 3" class="cls-1" d="M45.115,34.665l-0.13-.036a20.465,20.465,0,0,1-3.378-1.3c-0.559-.209-1.04-0.406-1.455-0.593L37,31V29a14.513,14.513,0,0,0,3-8,12.732,12.732,0,0,0-.017-3l0.192-.142a0.742,0.742,0,0,0,.282-0.785,4.417,4.417,0,0,0,1.551-3.211,5.343,5.343,0,0,0-.968-2.909,9.643,9.643,0,0,0-2.5-2.493,14.352,14.352,0,0,0-16.085,0,9.644,9.644,0,0,0-2.5,2.493,5.343,5.343,0,0,0-.968,2.909,4.472,4.472,0,0,0,1.649,3.3,0.741,0.741,0,0,0,.3.694l0.1,0.071A12.639,12.639,0,0,0,21,21a14.514,14.514,0,0,0,3,8v2l-2.963,1.654c-0.456.212-1,.438-1.644,0.68a20.441,20.441,0,0,1-3.378,1.3l-0.13.036C14.161,35.226,13,36.227,13,38v6H48V38C48,36.226,46.839,35.225,45.115,34.665Zm-8.484.627,0.286,1.158L31,42l5-10,2.544,1.286L36.909,34.52A0.742,0.742,0,0,0,36.631,35.293ZM24.192,34.52l-1.636-1.234L25,32l5,10-5.817-5.55,0.286-1.157A0.746,0.746,0,0,0,24.192,34.52Zm6.274-.548L33,36l-2.443,3.664L28,36ZM33,35l-1.986-1.767,0,0L30.96,33.2l-0.012-.007L30.9,33.164l-0.02-.01-0.029-.012a0.788,0.788,0,0,0-.3-0.058H30.518a0.784,0.784,0,0,0-.248.055l-0.035.014-0.017.009c-0.017.009-.034,0.016-0.05,0.026l-0.01.007a0.6,0.6,0,0,0-.055.035v0L28,35l-3-5c1.755,1.6,3.953,3.058,5.5,3.058,1.611,0,3.691-1.34,5.5-3.058ZM25,19l-1-1H37l-1,1H25Zm-1.518-3.2c1.058-.784,3.1-1.855,6.978-1.869A12.662,12.662,0,0,1,38,16a8.322,8.322,0,0,1,1,1H23A2.906,2.906,0,0,1,23.482,15.8ZM30.5,12A1.5,1.5,0,1,1,32,10.5,1.5,1.5,0,0,1,30.5,12ZM23.347,8.684C25.32,7.3,27.837,6.978,30.41,6.958c2.323-.018,5.222.334,7.243,1.726C39.424,9.93,41,12.627,41,14a3.4,3.4,0,0,1-1,2c-1.024-1.247-3.636-3.213-8.6-3.4a2.326,2.326,0,0,0,1.611-2.166,2.5,2.5,0,0,0-4.994.023A2.393,2.393,0,0,0,29.7,12.6a10.2,10.2,0,0,0-8.336,4.165A6.06,6.06,0,0,1,20,14C20,12.627,21.576,9.93,23.347,8.684ZM22,18l1.993,2.113C24.125,20.21,23.836,20,24,20H37c0.166,0-.01.21,0.123,0.113L39,18a25.314,25.314,0,0,1,0,3,11.751,11.751,0,0,1-3.32,7.392,12.076,12.076,0,0,1-2.84,2.374,5.014,5.014,0,0,1-2.339.792,5.015,5.015,0,0,1-2.339-.792,12.072,12.072,0,0,1-2.84-2.374A11.751,11.751,0,0,1,22,21,23.772,23.772,0,0,1,22,18ZM14,38a3.758,3.758,0,0,1,2.34-2.9l0.085-.024a14.955,14.955,0,0,0,2.849-1.046c0.245-.116.456-0.215,0.663-0.292,0.415-.156.868-0.334,1.327-0.532l2.6,2.21-0.3,1.213a0.745,0.745,0,0,0,.342.816L30,43H14V38Zm33,5H31l6.19-5.558a0.744,0.744,0,0,0,.341-0.815l-0.3-1.213L39.8,33.23c0.437,0.189.869,0.357,1.265,0.505,0.206,0.077.417,0.176,0.662,0.292a14.966,14.966,0,0,0,2.849,1.046L44.66,35.1A3.758,3.758,0,0,1,47,38v5Z"/>
</svg>
