<svg xmlns="http://www.w3.org/2000/svg" width="125" height="105" viewBox="0 0 125 105">
  <defs>
    <style>
      .cls-1 {
        fill: #00b83c;
        fill-rule: evenodd;
      }
    </style>
  </defs>
  <path id="Иконка" class="cls-1" d="M24.5,103h75a0.5,0.5,0,0,1,.5.5v1a0.5,0.5,0,0,1-.5.5h-75a0.5,0.5,0,0,1-.5-0.5v-1A0.5,0.5,0,0,1,24.5,103Zm-12-4h99a0.5,0.5,0,0,1,.5.5v1a0.5,0.5,0,0,1-.5.5h-99a0.5,0.5,0,0,1-.5-0.5v-1A0.5,0.5,0,0,1,12.5,99ZM2,44H123a2,2,0,0,1,2,2V95a2,2,0,0,1-2,2H2a2,2,0,0,1-2-2V46A2,2,0,0,1,2,44Zm2,2H121a2,2,0,0,1,2,2V93a2,2,0,0,1-2,2H4a2,2,0,0,1-2-2V48A2,2,0,0,1,4,46Zm57,3A22,22,0,1,1,39,71,22,22,0,0,1,61,49Zm0,2A20,20,0,1,1,41,71,20,20,0,0,1,61,51ZM98,65a6,6,0,1,1-6,6A6,6,0,0,1,98,65Zm0,2a4,4,0,1,1-4,4A4,4,0,0,1,98,67ZM28,65a6,6,0,1,1-6,6A6,6,0,0,1,28,65Zm0,2a4,4,0,1,1-4,4A4,4,0,0,1,28,67Zm76.5,21h12a0.5,0.5,0,0,1,.5.5v1a0.5,0.5,0,0,1-.5.5h-12a0.5,0.5,0,0,1-.5-0.5v-1A0.5,0.5,0,0,1,104.5,88Zm0-36h12a0.5,0.5,0,0,1,.5.5v1a0.5,0.5,0,0,1-.5.5h-12a0.5,0.5,0,0,1-.5-0.5v-1A0.5,0.5,0,0,1,104.5,52ZM9.5,88h12a0.5,0.5,0,0,1,.5.5v1a0.5,0.5,0,0,1-.5.5H9.5A0.5,0.5,0,0,1,9,89.5v-1A0.5,0.5,0,0,1,9.5,88Zm0-36h12a0.5,0.5,0,0,1,.5.5v1a0.5,0.5,0,0,1-.5.5H9.5A0.5,0.5,0,0,1,9,53.5v-1A0.5,0.5,0,0,1,9.5,52ZM63,73a7.945,7.945,0,0,0,5.211-2.4,6.445,6.445,0,0,0,0-8.913A7.081,7.081,0,0,0,63.157,60H56V81h2V73h5ZM58,62h6c1.711,0,2.151-.084,3.006.805a4.643,4.643,0,0,1,1.283,3.353,4.575,4.575,0,0,1-1.283,3.325A5.607,5.607,0,0,1,63,71H58V62ZM54,75H66v2H54V75Zm0-4H66v2H54V71ZM62,0a4.111,4.111,0,0,0-2.622,7.3L51.733,19.246,41.651,13.724c0.165-.366.258,0.23,0.258-0.195C41.909,11.912,40.625,10,39,10s-3,1.912-3,3.529c0,1.248,1.795,2.314,2.9,2.739L45,32v7a1,1,0,0,0,.455,1H78.545A1,1,0,0,0,79,39V32l6.1-15.732c1.107-.425,2.9-1.492,2.9-2.739C88,11.912,86.625,10,85,10s-2.909,1.912-2.909,3.529c0,0.425.094-.171,0.258,0.195L72.267,19.246,64.622,7.3A4.111,4.111,0,0,0,62,0Zm0,2c1.639,0,2,.369,2,2s-0.361,2-2,2-2-.369-2-2S60.361,2,62,2ZM60.393,7.9A4.122,4.122,0,0,0,62,8.235c0.569,0,.112-0.122.607-0.331l8.94,13.408a0.592,0.592,0,0,0,.739.221L83.07,15.7c0.455,0.412.037,0.688,0.68,0.754L77,32H47L40.25,15.452c0.643-.066.225,0.659,0.68,0.246l10.784,5.835a0.592,0.592,0,0,0,.739-0.221L61.393,7.9h-1ZM39,12a1,1,0,1,1-1,1A0.995,0.995,0,0,1,39,12Zm46,0a1,1,0,1,1-1,1A0.995,0.995,0,0,1,85,12ZM62,20a4.391,4.391,0,0,0-4,4,4.391,4.391,0,0,0,4,4,4.391,4.391,0,0,0,4-4A4.391,4.391,0,0,0,62,20Zm0,2a1.787,1.787,0,0,1,2,2,2,2,0,0,1-4,0A1.787,1.787,0,0,1,62,22ZM47,34H77v4H47V34Z"/>
</svg>
