<svg xmlns="http://www.w3.org/2000/svg" width="110" height="110" viewBox="0 0 110 110">
  <defs>
    <style>
      .cls-1 {
        fill: #276cb2;
        fill-rule: evenodd;
      }
    </style>
  </defs>
  <path id="Иконка" class="cls-1" d="M107.946,66.7l-16.1-11.9V46.4c0-3.2-1.4-3.184-1.4,0v7.7L77,44V29A25.783,25.783,0,0,0,51,3H47C32.953,3,21.844,14.3,21,28H12c-2.739,0-4.935.437-6.686,2.415C3.687,32.25,3.712,35.634,4,38L6.1,54.412C6.509,57.635,8.54,61,12,61h1V97a6.086,6.086,0,0,0,.965,2.02L20,106a4.515,4.515,0,0,0,2,1,4.412,4.412,0,0,0,2-1l5.546-6.4a2.075,2.075,0,0,0,0-2.8L27,94l3.133-2.832A1.858,1.858,0,0,0,31,90V87a1.579,1.579,0,0,0-.867-1.032l-3.378-2.753,3.378-2.753A2.47,2.47,0,0,0,31,79V76c0-.49-0.5-0.433-0.867-0.739l-3.378-2.753L29.546,70.2A4.319,4.319,0,0,0,30,68V61h2c3.46,0,5.534-2.978,5.946-6.2l1.723-16.818c0.309-2.386.268-5.69-1.38-7.526C36.538,28.478,33.739,28,31,28c0,0-7.678.138-8,0C23.834,16.065,34.743,5,47,5h4C63.811,5,75.046,16.215,75.046,28.9L75,44,43.644,66.186a1.613,1.613,0,0,0-.474,1.795,0.922,0.922,0,0,0,.214.338A2.565,2.565,0,0,0,45,69h9l0.046,26.4c0,3.569,2,6.3,5.6,6.3h32.9c3.6,0,5.6-2.031,5.6-5.6L98,69h11C108.294,69,110.354,67.517,107.946,66.7ZM26,71c-0.371.306-1,.531-1,1a4.106,4.106,0,0,0,1,2l3,3v2l-3.029,2.971a1.644,1.644,0,0,0-.6,1.244,1.612,1.612,0,0,0,.6,1.244L29,87v3l-3.029,2.7A2.3,2.3,0,0,0,25,94a4.107,4.107,0,0,0,1,2l2,2-6,7-7-8V61H28v7Zm6-41a6.263,6.263,0,0,1,5.024,1.862A4.643,4.643,0,0,1,38,36L36,56a3.62,3.62,0,0,1-3.864,3H11.556A3.808,3.808,0,0,1,7.65,55.815L6,36c-0.205-1.638-.452-2.846.668-4.138C7.924,30.407,9.99,30,12,30H32ZM76,60c3.877,0,6,2.15,6,6,0,3.877-2.15,7-6,7a7,7,0,0,1-7-7C69,62.15,72.15,60,76,60Zm22,7a2.351,2.351,0,0,0-2,2V96c0,1.795-1.642,4.3-3.454,4.3h-32.9c-2.2.408-4.077-3.051-3.646-5.3V69a2.351,2.351,0,0,0-2-2H46L75,46V58c-3.975.755-8,3.84-8,8a9.321,9.321,0,0,0,9,9c4.758,0,8-4.289,8-9,0-4.144-3.032-7.16-7-8,0.042-.5,0-12,0-12l29,21H98ZM17,45H27a2.352,2.352,0,0,0,2-2V36a2.352,2.352,0,0,0-2-2H17a2.351,2.351,0,0,0-2,2v7A2.351,2.351,0,0,0,17,45Zm0-9H27v7H17V36Z"/>
</svg>
